<?xml version="1.0"?>


<svg width="158" height="198" viewBox="28 43 158 198" version="1.1" id="svg1" xml:space="preserve" xmlns:inkscape="http://www.inkscape.org/namespaces/inkscape" xmlns:sodipodi="http://sodipodi.sourceforge.net/DTD/sodipodi-0.dtd" xmlns="http://www.w3.org/2000/svg" xmlns:svg="http://www.w3.org/2000/svg"><namedview id="namedview1" pagecolor="#505050" bordercolor="#ffffff" borderopacity="1"></namedview><defs id="defs1"></defs><g id="layer1"><path style="fill:#ffffff;fill-opacity:1;stroke-width:2.06637" d="m 80.884064,234.5248 c -2.800788,-0.94078 4.0184,-5.29627 4.920506,-6.57006 0.902105,-1.27376 2.524162,-3.40737 3.604593,-4.74135 2.258396,-2.78836 8.956833,-12.70898 11.088177,-16.42196 2.38896,-4.16175 6.31606,-14.17969 7.15979,-18.26454 1.51603,-7.33962 -0.55635,-14.36205 -5.55994,-18.84035 -3.004003,-2.68867 -8.4087,-5.72149 -12.369596,-6.94116 -2.527956,-0.77843 -3.170492,-1.23105 -3.633658,-2.5598 -0.775924,-2.22575 -0.704635,-3.96445 0.237048,-5.78568 1.041863,-2.01474 1.707651,-2.22561 7.035699,-2.22822 15.929567,-0.007 26.418887,-5.59221 32.026767,-17.05055 2.15901,-4.41142 5.97591,-17.11323 5.33508,-17.75406 -0.17509,-0.17509 -1.92733,0.11765 -3.89428,0.65002 -2.96111,0.80154 -4.39934,0.88411 -8.36149,0.48015 -2.6319,-0.26838 -7.61457,-0.48924 -11.07262,-0.4908 -7.600752,-0.003 -10.719518,0.89086 -15.855038,4.54679 -4.392943,3.1273 -5.547482,4.33356 -8.545184,8.92798 -2.9862,4.57684 -6.437899,7.63183 -11.069408,9.79726 -1.991705,0.9312 -4.940305,2.34897 -6.552444,3.15058 -2.739587,1.36221 -2.828935,1.46726 -1.366818,1.60712 2.667432,0.25515 9.180884,1.88351 9.941905,2.48542 1.293173,1.02286 2.883177,4.75694 3.213652,7.54718 0.322922,2.72668 0.322922,2.72668 -1.26032,2.34284 -0.870784,-0.21129 -2.120191,-0.58144 -2.776449,-0.82295 -2.366916,-0.87102 -11.977396,-1.16741 -17.718419,-0.54646 -6.431108,0.69562 -10.431861,1.74514 -17.685237,4.63943 -2.687721,1.07245 -4.945909,1.89078 -5.01821,1.81848 -0.07233,-0.0724 0.601684,-1.79555 1.497743,-3.82943 4.586547,-10.41051 11.871909,-17.12848 27.269265,-25.14551 2.856625,-1.48738 5.564393,-3.02924 6.017235,-3.4263 0.452824,-0.3971 2.044959,-3.13697 3.538052,-6.08859 2.258971,-4.46565 3.543382,-6.19694 7.650903,-10.31274 4.016027,-4.02411 5.893476,-5.43776 10.071474,-7.58352 6.932456,-3.56042 12.370748,-5.21043 18.510598,-5.6163 2.78147,-0.18379 5.05724,-0.53814 5.05724,-0.7873 0,-1.130941 -3.93197,-18.954661 -5.13375,-23.271373 -0.73711,-2.647559 -1.42117,-5.405393 -1.52024,-6.128511 -0.13331,-0.97503 -0.7409,-1.508127 -2.35071,-2.063293 -5.923552,-2.042791 -8.431424,-8.045608 -5.709965,-13.667407 4.013975,-8.291741 15.144445,-6.566581 17.475805,2.708683 0.55517,2.208655 0.51778,2.974867 -0.24227,4.964748 -0.49425,1.294158 -1.41164,2.903683 -2.03868,3.576712 -0.71122,0.763461 -1.0388,1.672181 -0.87092,2.416045 0.14794,0.655799 1.75433,7.096998 3.56961,14.313772 1.81528,7.216774 3.50803,14.086609 3.76172,15.26628 0.53365,2.481734 1.80689,3.325844 1.80689,1.197914 0,-1.253921 0.9955,-6.039647 4.44819,-21.384735 0.60891,-2.706281 1.42949,-6.590111 1.82346,-8.630709 0.71633,-3.710203 0.71633,-3.710203 -1.07841,-5.858325 -2.50628,-2.999824 -3.31669,-6.636198 -2.19042,-9.828446 1.5475,-4.386051 4.68576,-6.698714 9.09008,-6.698714 7.52918,0 12.11741,8.882342 7.77974,15.060699 -0.88324,1.258061 -2.64049,2.859301 -3.90503,3.558367 -1.32072,0.730115 -2.40811,1.777095 -2.55518,2.460253 -1.86631,8.668372 -5.49297,24.983686 -6.32403,28.449984 -0.5867,2.447165 -1.06846,4.879916 -1.07058,5.406156 -0.007,1.34721 1.22795,1.18973 2.14085,-0.27325 0.42213,-0.67658 4.24417,-5.904653 8.49349,-11.61793 4.24929,-5.713276 8.76267,-11.863961 10.02975,-13.668137 2.30371,-3.280384 2.30371,-3.280384 1.18687,-5.526563 -4.16968,-8.385794 7.73414,-16.824358 14.71129,-10.428758 3.3578,3.077935 4.21782,8.355754 1.98292,12.169304 -1.8094,3.087508 -4.33982,4.601796 -7.72352,4.62209 -2.66911,0.0174 -2.66911,0.0174 -6.22281,5.213596 -3.37155,4.931157 -5.31374,7.619617 -13.79171,19.090898 -1.99653,2.70141 -3.53866,5.00307 -3.42696,5.11478 0.11173,0.11173 2.3709,-1.03146 5.02048,-2.54039 2.64957,-1.50889 9.12283,-4.966102 14.38509,-7.682687 9.56769,-4.939233 9.56769,-4.939233 9.90729,-7.613595 0.65037,-5.122049 4.04548,-8.060854 9.22813,-7.98779 5.97964,0.08424 9.74097,3.945719 9.81706,10.078164 0.0313,2.648012 -2.05027,6.547888 -4.29398,8.038959 -2.49757,1.659759 -7.47474,1.733689 -9.49936,0.140976 -1.61067,-1.266937 -3.52325,-1.403945 -5.05974,-0.362465 -0.59314,0.402042 -5.99895,3.261448 -12.01295,6.354208 -6.01399,3.0928 -11.23503,5.86348 -11.60233,6.15713 -0.49603,0.39654 -0.10721,1.03709 1.51178,2.49047 2.88067,2.58605 8.87381,11.65034 10.98817,16.61902 2.22522,5.22922 4.11277,12.92963 5.06917,20.68062 1.5734,12.7505 -1.02581,29.13216 -7.24336,45.6516 -4.79314,12.73491 -7.77421,22.02977 -9.81724,24.87602 -6.47653,9.02258 -37.3033,19.98702 -59.980515,12.37001 z m 18.853573,-94.30403 c -2.938352,-1.57114 -4.092438,-4.15141 -3.876484,-8.66677 0.08981,-1.88031 3.141879,-4.98985 5.293587,-5.39349 2.77632,-0.52085 5.5313,0.18309 7.45915,1.90547 1.47572,1.31856 1.74308,1.97456 1.93774,4.75453 0.1904,2.71795 0.0209,3.52454 -1.06909,5.13055 -2.28266,3.35908 -6.06147,4.23922 -9.744903,2.26971 z" id="path1"></path></g></svg>