<?xml version="1.0"?>


<svg width="195" height="225" viewBox="10 31 195 225" version="1.1" id="svg1" xml:space="preserve" xmlns:inkscape="http://www.inkscape.org/namespaces/inkscape" xmlns:sodipodi="http://sodipodi.sourceforge.net/DTD/sodipodi-0.dtd" xmlns="http://www.w3.org/2000/svg" xmlns:svg="http://www.w3.org/2000/svg"><namedview id="namedview1" pagecolor="#505050" bordercolor="#ffffff" borderopacity="1"></namedview><defs id="defs1"></defs><g id="layer1"><path style="fill:#ffffff;fill-opacity:1;stroke-width:0.593633" d="m 92.524433,250.17477 c -3.153602,-2.60666 -6.823542,-6.41592 -8.561092,-8.88608 -3.92818,-5.58444 -5.23742,-9.26791 -5.03673,-14.17055 0.13397,-3.27259 0.86086,-5.3479 2.98695,-8.52786 0.55481,-0.82982 1.18732,-1.95565 1.40559,-2.50184 0.57179,-1.43086 0.81012,-3.91229 0.67132,-6.98968 -0.0616,-1.3667 -0.15859,-11.03713 -0.21545,-21.48982 l -0.10338,-19.00491 -0.78532,-0.39417 c -0.98288,-0.49332 -2.1324,-0.98615 -3.8543,-1.65242 -0.73769,-0.28544 -1.7272,-0.69185 -2.19891,-0.90312 -0.47172,-0.21128 -1.4231,-0.58056 -2.11419,-0.82063 -1.41252,-0.49069 -5.714792,-2.20605 -9.580976,-3.82004 -0.748392,-0.31243 -5.543893,-2.71592 -6.439679,-3.22755 -0.345541,-0.19736 -0.910976,-0.52027 -1.256524,-0.71758 -2.623078,-1.4978 -5.567258,-3.76086 -8.05899,-6.19458 -4.782737,-4.6714 -7.62787,-10.35186 -8.221069,-16.41382 -0.212413,-2.17068 -0.02582,-4.80378 0.474318,-6.69306 0.383184,-1.44749 1.608662,-4.5131 2.276261,-5.6942 1.432216,-2.53384 3.938437,-5.17077 6.378434,-6.71107 0.887195,-0.56006 3.91864,-2.12327 4.117542,-2.12327 0.08737,0 0.381575,-0.10265 0.653791,-0.22811 0.641474,-0.29564 2.709743,-0.80267 4.107433,-1.00692 4.96446,-0.72549 10.902039,-0.004 15.863589,1.92894 2.13923,0.83319 2.68215,1.03381 2.79784,1.03381 0.47742,0 5.79212,2.90808 8.23545,4.50624 4.905192,3.20844 9.154122,6.91112 14.294589,12.45681 1.51559,1.63507 4.83098,5.806 5.93028,7.4606 0.34436,0.51832 0.66932,0.97774 0.72214,1.02093 0.0528,0.0432 0.54171,0.78533 1.08643,1.64919 0.54472,0.86386 1.36733,2.14701 1.82802,2.85145 0.46069,0.70444 0.83762,1.32964 0.83762,1.38933 0,0.0597 0.13774,0.30198 0.30608,0.5384 0.30792,0.43243 0.64053,0.99406 3.29537,5.56436 1.72924,2.97687 1.9746,3.32538 3.805,5.40467 1.22119,1.38722 3.03245,3.02108 3.34911,3.02108 0.0544,0 0.30996,0.19719 0.56783,0.43818 0.25787,0.241 1.08452,0.81658 1.837,1.27907 0.75248,0.46248 1.55538,0.96894 1.78423,1.12545 0.22884,0.15652 1.14767,0.66286 2.04185,1.1252 1.42773,0.73823 2.09421,1.0427 3.35349,1.53198 0.17277,0.0671 0.67277,0.26733 1.11112,0.44489 2.488,1.0078 9.15165,2.75998 11.77,3.09487 0.78709,0.10067 0.78709,0.10067 1.14596,-0.53787 0.93402,-1.66185 2.64615,-2.61215 4.66987,-2.59194 2.06209,0.0206 3.77392,1.16604 4.71477,3.15484 0.39286,0.83045 0.39286,0.83045 2.39085,0.83149 1.09889,5.7e-4 3.87098,0.0453 6.16021,0.0995 l 4.16223,0.0984 2.98424,-2.9792 c 3.05221,-3.04707 11.40852,-11.57187 14.01808,-14.30074 0.79906,-0.8356 1.45285,-1.59458 1.45285,-1.68663 0,-0.0921 -0.11562,-0.33244 -0.25693,-0.53418 -0.38859,-0.55479 -0.20841,-2.42548 0.34197,-3.55041 0.51176,-1.04601 1.64985,-2.25114 2.50654,-2.65419 0.91762,-0.43171 2.66441,-0.51334 3.71004,-0.17337 0.86409,0.28095 1.73172,0.83103 2.21626,1.40512 0.14958,0.17722 0.35057,0.41466 0.44664,0.52766 0.0961,0.11299 0.34476,0.62402 0.55264,1.1356 1.34918,3.32034 -0.84582,6.88706 -4.41253,7.17007 -0.81796,0.0649 -1.25517,0.022 -1.70764,-0.16751 -0.3345,-0.14011 -0.74259,-0.25475 -0.90686,-0.25475 -0.17561,0 -1.05766,0.78313 -2.14047,1.90043 -1.01298,1.04523 -5.38866,5.46277 -9.72374,9.81675 l -7.88195,7.91632 -6.09685,-0.15466 c -3.35328,-0.0851 -6.42298,-0.15582 -6.82159,-0.15723 -0.71566,-0.002 -0.72811,0.006 -0.99644,0.70893 -0.14946,0.39134 -0.6008,1.04769 -1.003,1.45858 -1.82464,1.86403 -4.72082,2.12669 -6.90207,0.62595 -0.75633,-0.52036 -1.82325,-2.05169 -2.08049,-2.98607 -0.13502,-0.49045 -0.24054,-0.59492 -0.66652,-0.65994 -2.43066,-0.37098 -4.76843,-0.76844 -4.86726,-0.82752 -0.0662,-0.0396 -0.31359,-0.10468 -0.54973,-0.14465 -3.61016,-0.61118 -10.1318,-3.05575 -14.00022,-5.24784 -0.62956,-0.35675 -1.17262,-0.62067 -1.20681,-0.58648 -0.0768,0.0767 1.22766,1.85942 1.97556,2.69989 3.99964,4.49464 5.48063,5.95298 8.64278,8.51066 0.7327,0.59264 1.36752,1.12006 1.41071,1.17205 0.19742,0.23763 3.89967,2.71875 5.28739,3.54343 0.84972,0.50496 1.89835,1.15131 2.33028,1.43633 0.86544,0.57109 6.67863,3.53521 7.30353,3.72404 0.21597,0.0653 0.71073,0.25902 1.09946,0.43058 0.9423,0.41584 1.53648,0.65863 2.19892,0.89848 0.30234,0.10947 0.76176,0.29127 1.02092,0.40401 2.01354,0.87588 7.78758,2.49642 8.43413,2.36711 0.42886,-0.0858 0.90633,-0.28511 2.9035,-1.21213 1.20497,-0.5593 3.56305,-0.98737 4.66433,-0.84672 1.03893,0.13269 2.34722,0.60988 3.23854,1.18124 0.91357,0.58563 3.27494,3.03643 4.46609,4.63523 2.46761,3.31211 2.55492,3.45108 2.24557,3.57414 -2.54233,1.01128 -3.57697,1.42943 -3.96302,1.60163 -1.17258,0.52304 -3.7434,1.32536 -4.83388,1.5086 -1.50242,0.25244 -3.25235,0.0205 -4.34931,-0.57658 -1.04981,-0.57138 -2.63709,-2.1853 -4.18117,-4.25135 -1.3044,-1.74536 -1.34328,-1.78069 -2.22754,-2.0245 -1.34915,-0.37199 -5.62725,-1.77238 -6.78991,-2.22261 -2.66165,-1.03069 -4.64788,-1.83338 -4.79049,-1.93597 -0.0864,-0.0621 -0.77054,-0.37405 -1.52036,-0.69314 -2.0546,-0.87432 -5.60592,-2.73578 -7.49753,-3.92989 -0.34946,-0.22061 -0.67499,-0.4011 -0.72339,-0.4011 -0.0484,0 -0.27952,-0.13333 -0.51358,-0.29627 -0.23407,-0.16294 -1.41509,-0.95179 -2.62449,-1.75299 -1.2094,-0.80121 -2.23425,-1.50177 -2.27744,-1.55682 -0.0432,-0.055 -0.32592,-0.27238 -0.62826,-0.48295 -0.30236,-0.21058 -0.65575,-0.46716 -0.78533,-0.57019 -0.12958,-0.10303 -0.80103,-0.63034 -1.49212,-1.17179 -0.69109,-0.54145 -1.33434,-1.05893 -1.42945,-1.14996 -0.0951,-0.091 -0.79614,-0.73094 -1.55785,-1.42203 -0.76172,-0.69108 -1.91532,-1.80387 -2.56356,-2.47285 -0.64824,-0.66898 -1.20814,-1.18681 -1.24421,-1.15074 -0.0981,0.0981 1.07367,2.05846 2.91707,4.88011 1.46124,2.2367 4.07575,5.75244 5.08196,6.83374 0.20168,0.21674 0.62931,0.72042 0.95028,1.1193 1.14687,1.42522 4.00446,4.22401 5.96284,5.84013 1.83806,1.51683 5.52953,4.07301 7.98211,5.52725 1.65945,0.98397 4.25495,2.73787 5.18315,3.50251 2.32748,1.91733 4.9004,4.95122 6.55232,7.72627 2.7631,4.64172 5.57324,12.30851 6.85081,18.69077 0.64647,3.22952 0.6607,3.40729 0.28252,3.52732 -0.17831,0.0566 -2.67674,0.1119 -5.55207,0.12291 -4.0615,0.0155 -5.69533,-0.0389 -7.32311,-0.24436 -3.10189,-0.39139 -7.08251,-1.24252 -9.28141,-1.98455 -2.31397,-0.78086 -5.85815,-2.46367 -7.07899,-3.36117 -0.67045,-0.49287 -0.72547,-0.59287 -1.0569,-1.92088 -0.1923,-0.77053 -0.52234,-1.94872 -0.73343,-2.61821 -0.21108,-0.66949 -0.35721,-1.21725 -0.3247,-1.21725 0.0325,0 0.68081,0.44711 1.44069,0.99359 4.64175,3.33814 8.67505,4.87786 15.75308,6.01376 1.88529,0.30255 3.2964,0.412 6.25494,0.48514 3.82044,0.0945 3.82044,0.0945 3.70833,-0.51844 -0.0617,-0.3371 -0.17065,-0.77059 -0.24218,-0.9633 -0.0715,-0.19272 -0.27186,-0.93486 -0.44517,-1.64919 -0.68055,-2.80494 -2.82863,-8.57197 -4.18407,-11.23312 -2.03638,-3.99808 -4.40525,-7.01667 -7.15472,-9.11711 -1.00927,-0.77102 -3.20438,-2.23091 -3.35444,-2.23091 -0.0406,0 -0.46059,-0.24738 -0.93324,-0.54973 -0.47265,-0.30235 -0.8989,-0.54972 -0.94722,-0.54972 -0.0483,0 -0.49346,-0.27414 -0.9892,-0.60918 -0.49574,-0.33505 -1.11339,-0.71779 -1.37254,-0.85053 -0.25917,-0.13275 -0.61256,-0.37449 -0.78533,-0.5372 -0.17277,-0.16271 -0.77355,-0.60515 -1.33506,-0.98319 -0.5615,-0.37805 -1.05626,-0.72983 -1.09945,-0.78174 -0.0432,-0.0519 -0.3966,-0.33767 -0.78533,-0.63502 -4.97072,-3.80216 -11.35611,-11.06423 -14.84401,-16.88201 -0.51905,-0.86577 -1.25758,-2.17491 -1.64116,-2.90919 -0.38358,-0.73428 -1.00102,-1.90049 -1.37209,-2.59158 -0.37107,-0.69109 -1.55598,-3.02838 -2.63315,-5.194 -1.18236,-2.37712 -2.36531,-4.51228 -2.98512,-5.38797 -0.56466,-0.79777 -1.02666,-1.51736 -1.02666,-1.59908 0,-0.0817 -0.054,-0.14858 -0.11986,-0.14858 -0.0659,0 -0.43654,-0.4064 -0.82357,-0.90312 -0.83332,-1.06949 -2.38249,-2.73417 -2.46639,-2.65028 -0.0324,0.0324 0.3605,0.89823 0.87318,1.92399 0.51268,1.02575 1.19221,2.53647 1.51007,3.35713 0.54815,1.41525 1.79847,5.67171 2.46835,8.403 1.54452,6.29743 2.1871,8.49753 3.11943,10.68044 0.0738,0.17277 0.3631,0.87956 0.6429,1.57065 0.27981,0.69109 0.70761,1.59536 0.95069,2.00949 0.24307,0.41414 0.44195,0.77963 0.44195,0.81221 0,0.36593 3.61627,5.9315 4.83658,7.44367 0.55229,0.68438 0.55229,0.68438 1.98082,0.57837 2.30119,-0.17075 3.5808,0.22861 4.82482,1.50579 2.84737,2.92329 1.99017,7.55701 -1.69986,9.18891 -1.11657,0.49381 -1.88824,0.59834 -2.86714,0.38841 -1.87294,-0.40168 -3.33757,-1.50213 -4.18331,-3.14315 -0.60359,-1.17116 -0.70259,-2.98336 -0.23561,-4.31286 0.17804,-0.50685 0.27553,-1.0016 0.21668,-1.09945 -0.10609,-0.17634 -3.27795,-4.3998 -3.57978,-4.76661 -0.3743,-0.45489 -0.49199,-0.63479 -0.85182,-1.30213 -0.20934,-0.38825 -0.63368,-1.12998 -0.94298,-1.6483 -0.73886,-1.23817 -2.05538,-4.03635 -3.01832,-6.41523 -0.75865,-1.8742 -1.81979,-5.47917 -3.18864,-10.8326 -0.99769,-3.90186 -1.77427,-6.56783 -2.20465,-7.56849 -0.11147,-0.25915 -0.36668,-0.93061 -0.56714,-1.49212 -1.20642,-3.37921 -4.28579,-8.0897 -7.19756,-11.01001 -0.82367,-0.82608 -0.98603,-0.91325 -2.682974,-1.44044 -2.47247,-0.76811 -3.225323,-0.96626 -5.497293,-1.44685 -1.07983,-0.22842 -2.17536,-0.47561 -2.43451,-0.54931 -0.25916,-0.0737 -0.75392,-0.18075 -1.099462,-0.23789 -0.62826,-0.10388 -0.62826,-0.10388 1.444692,1.98936 1.14013,1.15128 2.30633,2.38502 2.59158,2.74164 0.28524,0.35662 0.84481,1.02808 1.24348,1.49212 0.87615,1.01983 2.856373,3.68189 4.144173,5.57111 3.194154,4.68588 6.277344,10.86355 7.870394,15.76963 0.21038,0.64789 0.44543,1.31935 0.52232,1.49212 0.15954,0.35842 1.17189,3.96057 1.8981,6.75381 1.62809,6.26209 3.19719,10.56861 5.33253,14.63558 1.25863,2.3972 3.86376,6.40026 5.14882,7.91173 0.17966,0.21132 0.58813,0.70228 0.90768,1.09101 0.54651,0.66482 1.20097,1.37742 3.90382,4.25066 4.36837,4.64374 6.13027,7.95821 7.2212,13.58441 0.62064,3.20082 0.78087,5.05978 0.77772,9.0231 -0.004,4.11596 -0.17288,6.30561 -0.84555,10.91604 -0.25208,1.72772 -0.45873,3.19431 -0.45922,3.2591 -0.002,0.22566 -0.48047,0.11197 -3.41198,-0.8103 -4.36652,-1.37371 -5.88889,-1.96372 -9.44999,-3.66243 -4.40203,-2.09984 -8.61624,-5.27896 -11.37314,-8.57968 -1.09887,-1.31564 -1.09887,-1.31564 -0.7594,-3.0647 0.18671,-0.96199 0.3394,-2.10246 0.33932,-2.53439 -2.4e-4,-1.28887 0.19557,-1.34615 0.84045,-0.24585 0.3125,0.53321 0.56819,1.00175 0.56819,1.0412 0,0.0912 1.1144,1.69118 1.25107,1.79623 0.0562,0.0432 0.21182,0.23906 0.34581,0.43527 0.77359,1.13277 2.81987,2.96133 5.62812,5.02932 0.9675,0.71247 2.90054,1.81709 4.55807,2.60468 2.54436,1.20898 7.70693,3.26056 8.06839,3.20634 0.35068,-0.0526 0.3137,0.13826 0.66245,-3.41851 0.28339,-2.89021 0.37892,-8.91239 0.17447,-10.99841 -0.31575,-3.22158 -1.0372,-6.1076 -2.12776,-8.51167 -0.92986,-2.04983 -2.42814,-4.00196 -5.98528,-7.79833 -0.99901,-1.06618 -1.99307,-2.17564 -2.20904,-2.46547 -0.21596,-0.28983 -1.02751,-1.36118 -1.80345,-2.38078 -1.35954,-1.78649 -3.51929,-4.9012 -3.7359,-5.38779 -0.0577,-0.12958 -0.31831,-0.58899 -0.57916,-1.02092 -1.32289,-2.19047 -3.14372,-6.09864 -4.31747,-9.26685 -0.66042,-1.78262 -0.69872,-1.84647 -0.70658,-1.17799 -0.0364,3.09386 0.93447,10.79266 1.74297,13.82174 0.17293,0.6479 0.42324,1.60207 0.55624,2.12039 0.53245,2.07497 2.36469,6.34865 3.54982,8.27994 0.51351,0.83681 0.7461,1.07489 1.12493,1.15143 0.98913,0.19989 2.4195,0.75001 4.14072,1.59251 3.67677,1.79972 4.89863,3.88614 4.89554,8.35954 -5.9e-4,1.0876 -0.10895,2.86095 -0.24046,3.94077 -0.13151,1.07983 -0.28306,2.44708 -0.33679,3.03833 -0.0977,1.07503 -0.0977,1.07503 -0.5574,0.98308 -0.25285,-0.0506 -0.68378,-0.19474 -0.95764,-0.3204 -0.27386,-0.12565 -1.16938,-0.48795 -1.99004,-0.80511 -2.02176,-0.78135 -4.7765,-2.17137 -5.73289,-2.89276 -2.91492,-2.19872 -3.68364,-4.7692 -2.9727,-9.94036 0.27751,-2.01848 0.29465,-1.93618 -0.80923,-3.88453 -0.65847,-1.16219 -2.15947,-4.64958 -2.80549,-6.51821 -0.23892,-0.69108 -0.4946,-1.39788 -0.56817,-1.57065 -0.27313,-0.64143 -1.08787,-4.00286 -1.54181,-6.36114 -0.5016,-2.60593 -0.86462,-5.26048 -1.11693,-8.1674 -0.49872,-5.74604 -0.55955,-6.16467 -1.22098,-8.40299 -0.38119,-1.28997 -1.7348,-4.2029 -2.59539,-5.58523 -0.402304,-0.64619 -2.155854,-2.80725 -2.529544,-3.11739 -0.23108,-0.19178 -0.25308,0.0283 -0.25308,2.53213 0,1.5082 -0.0448,5.38655 -0.0996,8.61856 -0.0996,5.87639 -0.0996,5.87639 0.59263,6.15207 1.14739,0.45697 2.205584,1.50962 2.788184,2.77358 0.44091,0.95657 0.51278,1.28463 0.51055,2.33039 -0.005,2.42696 -1.01075,4.09089 -3.166684,5.23992 -0.60772,0.32389 -0.91771,0.37476 -2.274283,0.37319 -1.89184,-0.002 -2.68671,-0.31915 -3.94871,-1.57462 -0.98327,-0.97817 -1.39575,-1.75372 -1.641192,-3.08579 -0.25426,-1.37993 0.10057,-3.02294 0.884012,-4.09329 0.57795,-0.7896 1.79955,-1.78254 2.38918,-1.94196 0.3534,-0.0956 0.3534,-0.0956 0.37345,-10.09144 0.011,-5.49774 0.0368,-10.15668 0.0573,-10.35321 0.0236,-0.22688 -0.11658,-0.48489 -0.3841,-0.70679 -0.85109,-0.70594 -5.749362,-3.71865 -6.054372,-3.72378 -0.22586,-0.004 -0.1439,31.59198 0.0858,33.05965 0.2288,1.46226 0.97838,3.70477 1.6275,4.86902 0.6497,1.16529 2.448822,3.30562 3.379812,4.02081 0.38238,0.29375 0.77191,0.60476 0.86563,0.69115 0.34732,0.32017 2.08693,1.59843 3.191073,2.34479 4.308104,2.91216 6.619714,7.18876 6.840344,12.65494 0.0915,2.26807 -0.11728,4.04915 -0.81024,6.91088 -0.13845,0.57175 -0.86582,2.67281 -1.11468,3.21984 -0.0786,0.17277 -0.34095,0.77354 -0.58299,1.33505 -0.24204,0.56151 -0.69639,1.48034 -1.00966,2.04185 -0.313274,0.56151 -0.766804,1.37432 -1.007834,1.80625 -1.1539,2.06779 -4.923413,7.35783 -5.293953,7.42941 -0.1348,0.0261 -0.69487,-0.32443 -1.24461,-0.77882 z m 1.21391,-4.96244 c 1.00031,-1.53585 1.40254,-2.20432 2.33897,-3.88706 2.043773,-3.67264 2.681573,-5.26038 3.477483,-8.65694 0.37119,-1.58408 0.43781,-2.21097 0.44033,-4.14388 0.003,-2.1516 -0.0243,-2.35557 -0.48985,-3.69104 -1.09786,-3.14904 -2.24586,-4.55474 -5.754023,-7.0456 -2.6474,-1.87971 -3.999822,-3.012 -5.214912,-4.36605 -0.51593,-0.57495 -0.99107,-1.05203 -1.05586,-1.0602 -0.0648,-0.008 -0.1178,0.43996 -0.1178,0.99582 0,1.01418 -0.32376,2.89934 -0.64915,3.77983 -0.31474,0.85166 -1.27199,2.65682 -1.79073,3.37691 -1.99225,2.76552 -2.82679,6.48807 -2.20074,9.81658 0.28252,1.50205 0.70527,2.95612 1.23295,4.24076 0.45809,1.11524 2.56114,4.24157 4.27909,6.36114 1.36272,1.68131 4.622102,5.02647 4.896912,5.02579 0.0669,-1.7e-4 0.34019,-0.33589 0.60733,-0.74606 z m -3.00517,-9.34218 c -3.583182,-3.34629 -5.206792,-6.76933 -4.386612,-9.24822 0.31076,-0.93923 1.08297,-2.43632 1.93521,-3.75183 0.3078,-0.47513 0.72923,-1.18192 0.9365,-1.57066 0.75514,-1.41624 0.66231,-1.42423 2.719172,0.23391 1.00436,0.80967 2.0999,1.81274 2.43451,2.22903 0.33462,0.4163 0.65191,0.79224 0.7051,0.83544 0.19701,0.15999 0.80616,1.48792 1.0331,2.25212 0.25861,0.8708 0.18862,1.92925 -0.21824,3.30091 -0.58497,1.97211 -3.20176,6.83762 -3.68356,6.849 -0.14243,0.004 -0.80626,-0.505 -1.47518,-1.1297 z m 6.328983,-33.24084 c 0.55523,-0.29714 1.13803,-1.28179 1.13803,-1.9227 0,-1.42561 -1.02781,-2.54352 -2.356513,-2.56309 -0.94053,-0.0138 -1.50474,0.3598 -2.01286,1.33304 -1.12984,2.16406 1.06939,4.3098 3.231343,3.15275 z m 33.048324,-0.3248 c 0.53183,-0.5993 0.60216,-0.77266 0.60164,-1.48302 -5.9e-4,-1.01364 -0.40353,-1.70459 -1.24351,-2.13311 -1.44143,-0.73537 -2.87618,-0.0497 -3.31632,1.58482 -0.23929,0.88866 0.0335,1.73314 0.75541,2.33815 0.54576,0.45741 0.65304,0.48644 1.59286,0.43111 0.96135,-0.0566 1.03539,-0.0905 1.60992,-0.73795 z M 104.0754,179.08814 c -0.16026,-0.6974 -1.66781,-5.28628 -1.79307,-5.45802 -0.063,-0.0864 -0.20367,-0.43978 -0.31257,-0.78532 -0.1089,-0.34555 -0.25082,-0.69894 -0.31538,-0.78533 -0.0645,-0.0864 -0.16985,-0.33376 -0.23398,-0.54972 -0.21582,-0.72671 -1.07413,-2.42779 -1.664264,-3.29837 -1.42113,-2.09654 -4.183513,-4.17676 -8.623883,-6.49424 -4.270612,-2.22889 -6.913462,-3.48021 -8.638592,-4.09016 -0.6479,-0.22907 -1.31935,-0.48337 -1.49213,-0.5651 -0.17277,-0.0817 -1.69237,-0.64938 -3.3769,-1.26143 -1.68452,-0.61205 -3.28549,-1.21521 -3.55771,-1.34035 -0.27221,-0.12515 -0.53549,-0.22754 -0.58506,-0.22754 -0.0496,0 -0.55308,-0.21204 -1.11892,-0.47119 -0.56583,-0.25916 -1.06365,-0.4712 -1.10627,-0.4712 -0.49141,0 -8.651863,-4.13234 -10.123894,-5.1266 -0.64789,-0.43761 -1.415588,-0.91797 -1.705987,-1.06747 -0.840506,-0.43269 -3.057006,-2.57472 -4.656145,-4.4997 -1.164814,-1.40215 -2.863535,-4.78109 -3.363018,-6.68941 -0.38674,-1.47754 -0.46203,-3.79059 -0.174753,-5.36872 0.451938,-2.48269 2.414523,-5.34635 4.773732,-6.96549 2.055494,-1.4107 3.712952,-1.89331 6.539759,-1.90424 2.944139,-0.0114 5.10118,0.57801 8.560056,2.33893 1.29579,0.65969 2.50548,1.29377 2.68821,1.40907 0.18273,0.1153 0.39477,0.15526 0.4712,0.0888 0.0764,-0.0665 0.45702,-0.23249 0.84576,-0.36893 2.82897,-0.99294 5.65807,0.13887 7.00224,2.80132 0.40382,0.79986 0.45793,1.07161 0.45473,2.28377 -0.004,1.3759 -0.004,1.3759 0.62825,1.72664 0.34755,0.19292 1.67692,1.06274 2.95417,1.93295 1.27725,0.87021 2.48562,1.68821 2.68526,1.81779 1.20649,0.78307 8.822565,6.63965 9.678085,7.4422 0.30235,0.28364 1.25651,1.13753 2.120374,1.89753 0.86386,0.76001 1.99473,1.78359 2.51305,2.27462 1.00622,0.95327 2.65376,2.34898 3.53269,2.99272 0.49301,0.36109 2.23221,1.79678 3.1233,2.57826 0.37339,0.32745 0.37339,0.32745 0.0937,-0.22228 -0.15385,-0.30235 -0.95316,-1.71594 -1.77624,-3.14131 -0.82308,-1.42537 -1.65806,-2.89137 -1.85552,-3.25779 -0.19745,-0.36642 -0.88098,-1.42661 -1.51895,-2.35598 -0.63798,-0.92937 -1.45568,-2.12095 -1.81713,-2.64798 -0.36144,-0.52702 -0.77827,-1.09275 -0.92628,-1.25719 -0.14801,-0.16443 -0.68776,-0.82876 -1.19945,-1.47629 -0.51169,-0.64753 -1.041784,-1.29193 -1.177994,-1.432 -0.13621,-0.14008 -0.49503,-0.56415 -0.79738,-0.94239 -0.89392,-1.1183 -3.775743,-4.19248 -5.359993,-5.71777 -1.35235,-1.30202 -2.43187,-2.25138 -4.460512,-3.92267 -0.41943,-0.34555 -0.97887,-0.80706 -1.24319,-1.02558 -4.10197,-3.39113 -9.91354,-6.54146 -14.61648,-7.92329 -3.793768,-1.11469 -6.654867,-1.55724 -9.973641,-1.5427 -2.745533,0.0121 -4.888303,0.35537 -7.241688,1.16036 -4.317187,1.47672 -7.839637,4.89547 -9.695148,9.40974 -1.012862,2.46419 -1.376533,6.08919 -0.898,8.95102 0.553907,3.31262 2.429447,7.4946 4.544578,10.13329 1.892346,2.36076 4.908006,5.07837 7.321775,6.59814 2.410053,1.51743 3.980117,2.43224 4.174377,2.43224 0.1229,0 0.223449,0.0707 0.223449,0.15706 0,0.0864 0.07314,0.15707 0.162537,0.15707 0.0894,0 1.414638,0.61844 2.944975,1.37432 1.530344,0.75588 3.100496,1.50692 3.48923,1.66898 2.484566,1.03581 3.399926,1.39478 4.869026,1.90953 0.90705,0.31781 1.86122,0.67202 2.12038,0.78714 0.25915,0.11511 1.42536,0.57249 2.59158,1.01641 4.61642,1.75724 8.23165,3.39065 12.25109,5.53522 1.929462,1.02947 5.278732,3.31255 7.453085,5.08052 1.39362,1.13315 4.452004,4.29669 5.545504,5.73616 0.58232,0.76656 1.07778,1.39378 1.10102,1.39382 0.0233,4e-5 -0.002,-0.19429 -0.057,-0.43185 z m 46.82467,-4.75398 c 0.88314,-0.54581 1.32735,-1.60943 1.10154,-2.63752 -0.14174,-0.64532 -1.11043,-1.57235 -1.77288,-1.69663 -1.21138,-0.22725 -2.57448,0.70598 -2.80191,1.91829 -0.34932,1.86203 1.87077,3.40624 3.47325,2.41586 z M 92.902843,158.11993 c -2.466892,-3.17288 -5.717022,-6.37886 -8.773422,-8.65424 -2.53068,-1.884 -3.20895,-2.22686 -8.9393,-4.51879 -1.48691,-0.59471 -2.26597,-0.97027 -4.96531,-2.39364 -3.239677,-1.70831 -6.252428,-4.28205 -7.747765,-6.6188 -0.906019,-1.41583 -1.073839,-1.75997 -1.589291,-3.25911 -0.364526,-1.06018 -0.364526,-1.06018 0.372178,-1.05925 0.40519,5.2e-4 1.30601,0.0453 2.001824,0.0994 1.265115,0.0985 1.265115,0.0985 1.920164,1.37338 1.740537,3.3875 5.06224,5.85037 11.18619,8.29401 2.94305,1.17437 7.88886,2.68515 10.68044,3.26254 0.90705,0.18761 2.42665,0.50916 3.3769,0.71458 0.950242,0.20541 2.748162,0.59347 3.995372,0.86236 1.2472,0.26889 2.325063,0.52438 2.395243,0.56775 0.68817,0.42532 -1.137573,-1.34871 -2.306953,-2.24159 -0.42219,-0.32237 -0.9006,-0.7191 -1.06313,-0.88164 -0.16253,-0.16253 -1.72146,-1.35451 -3.464282,-2.64884 -1.74281,-1.29434 -3.27477,-2.43789 -3.40435,-2.54123 -0.12958,-0.10335 -0.65967,-0.46406 -1.17799,-0.8016 -0.51831,-0.33753 -1.52866,-1.00865 -2.2452,-1.49139 -0.71655,-0.48273 -1.56346,-1.02892 -1.88202,-1.21377 -0.57295,-0.33246 -0.58333,-0.33283 -0.96242,-0.0347 -0.58966,0.46383 -1.74479,0.93211 -2.53434,1.02741 -1.52821,0.18445 -3.71907,-0.6271 -4.63659,-1.7175 -0.96429,-1.146 -1.46101,-2.82452 -1.32671,-4.48325 0.0924,-1.14119 0.24455,-0.99247 -2.471232,-2.41536 -3.089219,-1.61854 -6.187922,-2.19918 -8.644944,-1.6199 -1.315086,0.31005 -2.121927,0.74019 -3.254163,1.73485 -1.728984,1.51891 -2.429364,3.14769 -2.432647,5.65733 -0.0042,2.99818 1.55654,5.93768 4.85915,9.15335 1.364019,1.32813 2.459081,2.14233 4.744864,3.52794 1.842813,1.11708 6.453692,3.41568 7.985432,3.98087 0.56151,0.20718 1.16228,0.44183 1.33505,0.52145 0.75237,0.34668 3.27285,1.34172 4.7905,1.89121 4.99798,1.80958 11.41766,4.57122 13.586142,5.84454 0.5517,0.32395 0.80858,0.35929 0.59261,0.0815 z M 78.352451,132.37177 c 0.73631,-0.36103 1.07843,-0.99088 1.07843,-1.98538 0,-0.69789 -0.0822,-1.00122 -0.37852,-1.3961 -0.95716,-1.27571 -2.73095,-1.31979 -3.66591,-0.0911 -0.35707,0.46926 -0.43193,0.72658 -0.43193,1.48473 0,0.85742 0.0401,0.95718 0.61569,1.5328 0.82196,0.82196 1.73076,0.97059 2.78224,0.45504 z m 69.087709,88.81779 c -1.07074,-0.0973 -3.25217,-0.5227 -4.26321,-0.83142 -1.47079,-0.4491 -2.55869,-1.07806 -3.52278,-2.03666 -0.92821,-0.92292 -1.30261,-1.71216 -2.34962,-4.95313 -0.46122,-1.4277 -1.56575,-5.77468 -1.56575,-6.16217 0,-0.16951 0.74192,-0.20562 3.88736,-0.18926 4.16559,0.0217 5.33481,0.12514 6.97135,0.61689 1.70298,0.51173 3.35127,2.21966 4.35985,4.51763 0.51834,1.181 1.5942,4.77542 2.25625,7.53809 l 0.3858,1.60991 -2.76549,-0.0264 c -1.52103,-0.0145 -3.04821,-0.0521 -3.39376,-0.0835 z M 44.476605,210.25336 c -0.05307,-0.0471 -5.470301,-0.19149 -9.775586,-0.26064 -0.226429,-0.004 0.192919,-0.59989 1.029045,-1.46318 0.527686,-0.54482 1.225251,-1.04694 1.924325,-1.38516 1.096588,-0.53054 1.096588,-0.53054 12.921446,-0.57457 11.824858,-0.044 11.824858,-0.044 11.958693,-0.39266 0.0736,-0.19175 0.353763,-0.8275 0.622566,-1.41277 0.268803,-0.58526 0.488732,-1.09067 0.488732,-1.12312 0,-0.0325 0.272198,-0.64913 0.604894,-1.37039 0.332695,-0.72126 0.979541,-2.15954 1.437439,-3.19617 0.457905,-1.03663 1.35191,-2.99991 1.986681,-4.36284 0.63478,-1.36293 1.154143,-2.50446 1.154143,-2.53672 0,-0.0546 0.628924,-1.4341 1.756088,-3.85194 0.25986,-0.5574 0.60057,-1.33487 0.75715,-1.72772 0.15658,-0.39284 0.56242,-1.31504 0.90187,-2.04932 0.99916,-2.16132 1.00464,-2.17859 0.80782,-2.54634 -0.097,-0.18122 -0.60973,-0.98394 -1.13944,-1.78383 -1.04587,-1.57932 -3.161568,-5.05783 -4.000837,-6.57794 -0.288571,-0.52268 -0.896967,-1.58643 -1.351986,-2.3639 -0.455026,-0.77748 -1.058459,-1.83767 -1.340975,-2.35598 -0.282515,-0.51832 -0.599877,-1.04841 -0.705253,-1.17799 -0.10537,-0.12958 -0.238854,-0.34162 -0.296626,-0.4712 -0.05776,-0.12958 -0.350624,-0.62433 -0.650782,-1.09946 -0.300164,-0.47512 -0.477203,-0.88691 -0.39343,-0.91508 0.08378,-0.0281 0.418897,0.0936 0.744712,0.27064 0.731272,0.39732 2.329901,1.025 5.697012,2.23686 1.425365,0.513 2.814295,1.03603 3.086505,1.16228 0.27222,0.12625 0.54892,0.22955 0.6149,0.22955 0.10903,0 1.9681,0.6963 3.13093,1.17268 0.25916,0.10617 1.00947,0.39321 1.66735,0.63787 1.19615,0.44484 1.19615,0.44484 1.29485,1.71239 0.16803,2.15813 0.11087,4.98577 -0.11771,5.82244 -0.31806,1.16422 -0.8994,2.61716 -1.82248,4.55489 -1.28558,2.69872 -2.03251,4.30082 -4.21054,9.03126 -0.25854,0.56151 -0.8661,1.85395 -1.35014,2.8721 -0.48405,1.01815 -0.88008,1.87904 -0.88008,1.91309 0,0.0341 -0.20457,0.50859 -0.45459,1.05453 -0.48871,1.06712 -1.9811,4.46942 -2.467822,5.62605 -0.163582,0.38873 -0.553295,1.21114 -0.866027,1.82756 l -0.568599,1.12078 2.531917,0.0745 c 2.793831,0.0822 3.365531,0.21931 4.525811,1.08514 0.5716,0.42654 2.16833,2.29187 2.16833,2.53307 0,0.082 -31.327996,0.14304 -31.420306,0.0612 z m 124.484665,-0.12357 c -1.36797,-0.1992 -3.31985,-0.72795 -4.40099,-1.19217 -1.08148,-0.46438 -1.52047,-0.88665 -2.49743,-2.40232 -0.4393,-0.68153 -1.3614,-1.85515 -2.09663,-2.6685 -0.50731,-0.56121 -0.43779,-0.6714 0.2355,-0.37332 2.99421,1.32563 5.32035,2.09723 8.04959,2.67013 2.43784,0.51174 6.58779,0.3293 10.83751,-0.47644 2.65573,-0.50353 7.02895,-1.87037 9.34538,-2.92089 0.17278,-0.0784 0.8045,-0.34474 1.40384,-0.59197 0.59934,-0.24723 1.11648,-0.52982 1.1492,-0.62798 0.0327,-0.0982 -0.21256,-0.4824 -0.54506,-0.85385 -0.33251,-0.37146 -0.79421,-0.9581 -1.026,-1.30365 -1.97014,-2.93696 -7.3942,-8.38844 -10.4038,-10.45639 -0.43078,-0.296 -0.87315,-0.6221 -0.98304,-0.72468 -0.43671,-0.4076 -4.4298,-2.26032 -5.53727,-2.56918 -1.49904,-0.41808 -4.68187,-0.58227 -6.21332,-0.32054 -1.2816,0.21904 -3.11614,0.81259 -4.2573,1.37742 -0.79997,0.39595 -0.82261,0.39798 -1.64918,0.14785 -1.78568,-0.54038 -3.63157,-1.04062 -3.83989,-1.04062 -0.41355,0 -0.21247,-0.2374 0.68647,-0.81042 3.64419,-2.32297 7.44237,-3.4684 11.58219,-3.49289 4.88646,-0.0289 8.96433,1.60541 14.06887,5.63847 1.10207,0.87074 6.00146,5.67209 6.65118,6.5181 0.16587,0.21597 0.67085,0.81674 1.1222,1.33506 1.11329,1.27846 2.41165,2.91619 3.36197,4.24076 1.77773,2.47779 2.51754,3.58178 2.51266,3.74953 -0.005,0.1813 -3.81459,2.10695 -5.6492,2.85573 -0.56151,0.22917 -1.30364,0.53822 -1.64918,0.68676 -2.46386,1.05915 -4.43306,1.73222 -7.40136,2.52974 -1.99744,0.53667 -2.61018,0.65844 -5.08534,1.01058 -1.79672,0.25562 -6.21107,0.29293 -7.77157,0.0657 z M 50.923538,203.84384 c 0,-0.26692 5.765294,-11.70211 6.126282,-12.1512 0.06944,-0.0864 1.167093,-2.20677 2.439236,-4.71197 1.272143,-2.50519 2.373041,-4.63113 2.446443,-4.7243 0.167155,-0.2122 -2.754045,-4.58072 -4.493757,-6.72022 -0.431927,-0.53118 -1.059207,-1.30603 -1.393956,-1.7219 -1.085457,-1.34849 -5.859071,-6.44165 -6.902012,-7.36405 -1.478501,-1.30761 -3.524325,-2.96571 -4.42632,-3.58745 -0.431927,-0.29773 -0.820662,-0.57666 -0.863854,-0.61986 -0.04322,-0.0432 -0.255233,-0.18027 -0.471196,-0.30462 -0.21597,-0.12435 -0.852083,-0.50722 -1.413588,-0.85083 -0.561511,-0.34361 -1.394259,-0.8299 -1.850548,-1.08066 -3.489782,-1.91784 -8.964232,-6.17238 -11.994923,-9.322 -1.576308,-1.63817 -4.035781,-4.67196 -5.145743,-6.34733 -0.935619,-1.41222 -2.382729,-4.22453 -3.151982,-6.12554 -0.192259,-0.47513 -0.407457,-1.00522 -0.478218,-1.17799 -0.81783,-1.99683 -1.802197,-6.05116 -2.288074,-9.42393 -0.351953,-2.44313 -0.360097,-7.13896 -0.01692,-9.73805 0.567869,-4.30042 1.373624,-7.20907 3.223834,-11.63754 1.855595,-4.44134 5.797416,-10.988656 9.529988,-15.82916 0.518312,-0.672164 1.154425,-1.521522 1.413581,-1.887461 0.259162,-0.365933 0.725152,-0.978888 1.035545,-1.362119 0.648793,-0.801042 2.573148,-3.651078 3.185444,-4.717753 0.686311,-1.195599 1.814498,-4.073597 2.05689,-5.247103 0.435536,-2.108548 -0.159824,-4.125976 -1.597276,-5.412524 -0.862999,-0.772402 -2.415687,-1.643684 -3.553585,-1.994073 -0.726239,-0.223628 -0.910823,-0.353662 -1.043891,-0.735388 -0.222903,-0.639426 -0.202429,-1.138926 0.06813,-1.662138 0.299309,-0.578794 0.490584,-0.639372 2.021242,-0.640126 4.576301,-0.0023 7.589711,-1.606546 9.200765,-4.898345 0.620245,-1.267326 1.716773,-4.916345 1.532676,-5.100441 -0.05028,-0.05025 -0.553693,0.03378 -1.11876,0.186736 -0.850682,0.230269 -1.263856,0.253994 -2.402123,0.137936 -0.756098,-0.07709 -2.187536,-0.140542 -3.180974,-0.141001 -2.18357,-0.001 -3.07954,0.255933 -4.554895,1.306225 -1.262022,0.898424 -1.593702,1.244961 -2.454885,2.564862 -0.857888,1.314847 -1.849504,2.1925 -3.18006,2.814592 -0.572184,0.267519 -1.419268,0.674817 -1.882409,0.905107 -0.787038,0.391338 -0.812706,0.42152 -0.392664,0.461703 0.766309,0.07331 2.637516,0.541097 2.856145,0.714017 0.371507,0.293844 0.828289,1.36659 0.923229,2.168183 0.09277,0.783328 0.09277,0.783328 -0.362069,0.673053 -0.250162,-0.06065 -0.609096,-0.167039 -0.797628,-0.236419 -0.679976,-0.250231 -3.440908,-0.335381 -5.090209,-0.156987 -1.847551,0.199838 -2.996901,0.501349 -5.080676,1.332827 -0.772138,0.308102 -1.420878,0.54319 -1.441649,0.522419 -0.02078,-0.02077 0.172854,-0.51583 0.430277,-1.100132 1.317639,-2.990763 3.410603,-4.920723 7.834009,-7.223886 0.820661,-0.427301 1.598558,-0.870246 1.728652,-0.984323 0.130089,-0.114077 0.587483,-0.901193 1.016424,-1.749146 0.648965,-1.282911 1.017955,-1.780279 2.197978,-2.962676 1.153737,-1.15606 1.693099,-1.562184 2.893365,-2.178622 1.991584,-1.022851 3.553912,-1.496875 5.317796,-1.613468 0.799071,-0.05282 1.452857,-0.154603 1.452857,-0.226188 0,-0.324896 -1.129594,-5.445356 -1.474845,-6.685474 -0.211751,-0.760606 -0.408279,-1.552886 -0.436738,-1.760621 -0.03835,-0.280115 -0.212847,-0.433262 -0.675317,-0.592748 -1.701742,-0.586859 -2.422211,-2.311377 -1.640379,-3.926423 1.153144,-2.382085 4.350751,-1.886472 5.020511,0.778156 0.159486,0.63451 0.148747,0.854637 -0.06957,1.426293 -0.141991,0.371791 -0.405546,0.834182 -0.585678,1.027534 -0.204329,0.219322 -0.298437,0.480389 -0.250205,0.694088 0.0425,0.188397 0.503994,2.038844 1.025489,4.112106 0.5215,2.073262 1.007804,4.04685 1.080678,4.385751 0.153318,0.712963 0.519096,0.955462 0.519096,0.344141 0,-0.36023 0.285983,-1.73509 1.277884,-6.14348 0.174937,-0.777473 0.410669,-1.893231 0.523851,-2.479462 0.205788,-1.065874 0.205788,-1.065874 -0.309805,-1.682995 -0.720011,-0.861799 -0.952834,-1.906476 -0.629269,-2.823557 0.444566,-1.260034 1.346133,-1.924421 2.611426,-1.924421 2.163007,0 3.481132,2.551745 2.234991,4.32669 -0.253737,0.361412 -0.758568,0.821426 -1.121847,1.022253 -0.37942,0.209751 -0.691814,0.510535 -0.734068,0.706794 -0.536157,2.490282 -1.578036,7.1774 -1.816783,8.173208 -0.168556,0.703028 -0.306956,1.401921 -0.307561,1.553097 -0.0018,0.387036 0.352772,0.341792 0.615027,-0.07853 0.121267,-0.194369 1.219286,-1.696305 2.440038,-3.337638 1.220751,-1.641332 2.51737,-3.408317 2.881379,-3.926632 0.661823,-0.942392 0.661823,-0.942392 0.340971,-1.587682 -1.197873,-2.409104 2.221895,-4.833364 4.226314,-2.996015 0.964641,0.884241 1.211705,2.400475 0.569661,3.496038 -0.519808,0.886988 -1.246759,1.322027 -2.218844,1.327849 -0.766783,0.0046 -0.766783,0.0046 -1.787707,1.49778 -0.968594,1.416643 -1.526555,2.188995 -3.962129,5.484499 -0.573568,0.776079 -1.016602,1.437307 -0.98451,1.469395 0.03212,0.03209 0.681122,-0.296325 1.442302,-0.729809 0.761173,-0.433484 2.62084,-1.426684 4.132597,-2.207111 2.748643,-1.418958 2.748643,-1.418958 2.846195,-2.187256 0.18684,-1.471484 1.162208,-2.315756 2.651092,-2.294761 1.717848,0.02423 2.798425,1.133536 2.820283,2.895289 0.0094,0.760729 -0.589008,1.881099 -1.233592,2.30946 -0.717506,0.476818 -2.147365,0.498056 -2.729007,0.04053 -0.462718,-0.363972 -1.012167,-0.403333 -1.45358,-0.104132 -0.170397,0.1155 -1.723405,0.936959 -3.451119,1.825464 -1.72772,0.888506 -3.22764,1.68448 -3.333158,1.768831 -0.142507,0.113921 -0.03081,0.297941 0.434302,0.715477 0.827577,0.742931 2.549301,3.346943 3.156724,4.774366 0.639271,1.502267 1.181525,3.714467 1.456294,5.941198 0.452003,3.663009 -0.294709,8.369192 -2.080908,13.114951 -1.37699,3.658529 -2.393717,6.234834 -2.820331,7.146469 -1.438645,3.074275 -2.532157,6.44869 -2.955079,9.118933 -0.318264,2.009422 -0.231897,5.833546 0.164739,7.294396 0.750969,2.76588 3.111252,5.87904 5.142888,6.78335 0.579065,0.25774 0.579065,0.25774 -0.392664,0.75044 -3.194473,1.61969 -6.705222,5.01499 -8.937845,8.64394 -1.101248,1.78999 -1.380854,2.35636 -1.977271,4.00516 -1.704551,4.71224 -2.123442,8.91889 -1.376403,13.82241 0.370801,2.43389 1.661228,6.20962 2.817992,8.24527 0.343624,0.6047 0.702362,1.24081 0.797195,1.41358 0.200707,0.36566 1.383758,2.16178 1.500086,2.27745 0.04345,0.0432 0.534792,0.67931 1.091904,1.41359 1.422005,1.87423 3.462724,4.05564 4.803699,5.13487 0.34268,0.27579 0.882304,0.7352 1.199173,1.02092 0.316869,0.28572 1.143978,0.9789 1.838029,1.54041 0.694046,0.56151 2.378472,2.15223 3.743168,3.53494 2.083395,2.11089 2.691358,2.84128 3.791413,4.5549 1.375939,2.14336 5.522201,8.86421 5.522201,8.95116 0,0.0278 0.459419,0.80825 1.020924,1.73425 0.561511,0.92599 1.020923,1.70863 1.020923,1.7392 0,0.0306 0.282718,0.51747 0.628265,1.08202 0.345542,0.56456 0.62826,1.09729 0.62826,1.18385 0,0.1437 -0.615176,1.35133 -2.077275,4.07785 -0.301114,0.5615 -1.059551,2.01043 -1.685418,3.21983 -0.625867,1.20941 -1.191878,2.26959 -1.257795,2.35599 -0.06592,0.0864 -0.52768,0.93453 -1.026123,1.88478 -0.49845,0.95024 -1.171552,2.22247 -1.495782,2.82717 -0.324231,0.6047 -0.907849,1.70395 -1.296921,2.44277 -1.012524,1.9227 -1.957106,3.69107 -2.568037,4.80769 -0.602632,1.10144 -0.528007,1.07299 -3.23899,1.23484 -1.164292,0.0695 -1.531388,0.0446 -1.531388,-0.10366 z M 150.58932,161.8023 c 0.56005,-0.47466 1.53242,-1.1097 2.48846,-1.62516 2.27027,-1.22403 4.65316,-2.38143 4.73483,-2.29976 0.11414,0.11414 -0.17607,0.76166 -0.97114,2.16685 -1.12376,1.98608 -0.9156,1.88453 -3.86302,1.88453 -1.39609,0 -2.4712,-0.0569 -2.38913,-0.12646 z m 12.5181,-0.3006 c -0.71268,-0.0313 -1.29578,-0.0943 -1.29578,-0.14001 0,-0.0458 0.30244,-0.59065 0.67208,-1.2109 0.36966,-0.62026 1.09412,-1.9649 1.60992,-2.9881 1.46092,-2.89802 2.90589,-4.13428 5.27892,-4.51645 0.74896,-0.12061 1.54578,-0.0958 3.34703,0.10443 1.30024,0.14449 2.38812,0.28427 2.41754,0.31061 0.0806,0.0722 -3.96412,5.85691 -4.66316,6.66921 -1.25311,1.45612 -3.30463,1.94938 -7.36655,1.77121 z m -30.66699,-2.09445 c -3.52995,-0.31044 -7.77257,-1.07147 -8.47165,-1.51962 -0.21053,-0.13496 -0.56394,-0.45965 -0.78533,-0.72152 -0.65198,-0.77118 -2.52574,-3.29722 -2.47984,-3.34312 0.0232,-0.0232 0.76504,0.12865 1.64852,0.33744 4.9951,1.18049 8.12767,1.55639 12.99401,1.55924 5.91694,0.004 10.32497,-0.72415 14.52853,-2.39818 6.14518,-2.44728 9.43981,-4.7126 12.21982,-8.4021 1.38918,-1.84366 1.70886,-2.36327 2.84292,-4.62098 0.92164,-1.8348 4.33438,-10.22816 4.20954,-10.35301 -0.0617,-0.0617 -1.68104,0.098 -6.62852,0.6537 -4.81209,0.54052 -8.36664,1.38457 -10.6282,2.52373 -0.83724,0.42172 -4.507,3.1652 -5.71277,4.27081 -0.44371,0.40686 -1.01257,0.91404 -1.26414,1.12709 -0.58058,0.49169 -3.36819,2.34324 -4.32913,2.87545 -0.40173,0.2225 -1.00251,0.57462 -1.33505,0.78248 -0.33255,0.20786 -1.5944,0.8731 -2.80412,1.47831 -5.55797,2.78059 -10.34897,4.27757 -17.48617,5.46369 -1.10426,0.18352 -1.16019,0.17788 -1.35105,-0.13624 -0.61339,-1.00955 -1.65923,-2.88305 -1.65923,-2.97233 0,-0.0572 0.1838,-0.10399 0.40845,-0.10399 0.55198,0 4.43426,-0.69555 6.65949,-1.19312 2.72141,-0.60852 6.68447,-1.9303 8.91775,-2.97429 0.45588,-0.21311 0.86407,-0.38748 0.90709,-0.38748 0.2762,0 4.64306,-2.23893 6.13552,-3.14574 0.99123,-0.60226 1.82427,-1.09502 1.85121,-1.09502 0.0269,0 0.97641,-0.62049 2.10993,-1.37886 1.99966,-1.33785 3.87856,-2.90188 5.39961,-4.49472 1.20913,-1.2662 2.44618,-4.15352 2.86699,-6.69165 0.39341,-2.37285 0.69699,-8.62714 0.70762,-14.57813 0.002,-1.32306 0.0736,-2.53507 0.1583,-2.69334 0.14903,-0.27846 3.34191,-2.27224 5.26474,-3.28756 0.51832,-0.27368 1.36648,-0.75338 1.88479,-1.06599 0.51832,-0.31261 2.14394,-1.27398 3.6125,-2.13637 1.46856,-0.862395 3.1111,-1.849104 3.6501,-2.192687 0.97999,-0.624685 0.97999,-0.624685 0.66753,-1.063499 -0.17186,-0.241353 -0.31247,-0.483775 -0.31247,-0.538727 0,-0.05497 -0.13405,-0.29142 -0.29788,-0.525484 -1.77138,-2.530679 -3.87686,-5.456148 -5.50615,-7.650576 -1.09036,-1.468558 -2.52436,-3.412242 -3.18666,-4.319293 -0.6623,-0.907052 -1.41068,-1.931903 -1.66306,-2.277446 -3.26115,-4.464909 -7.43876,-9.973646 -7.5636,-9.973646 -0.10234,0 -0.16021,1.137078 -0.16187,3.180572 -10e-4,1.749314 -0.0469,6.299307 -0.10107,10.111097 -0.0985,6.930518 -0.0985,6.930518 0.46835,7.117589 0.82154,0.27113 2.0133,1.414484 2.52165,2.419225 0.63577,1.256578 0.73565,2.969024 0.24831,4.25734 -1.09264,2.888435 -4.32875,4.155385 -7.17313,2.808315 -0.27748,-0.13142 -0.57443,-0.21448 -0.65988,-0.1846 -0.17507,0.0612 -1.92814,1.7394 -6.03722,5.7793 l -2.80378,2.75657 0.10233,-1.64919 c 0.16877,-2.72004 -0.0592,-2.32809 3.26271,-5.60993 1.64238,-1.62257 3.12337,-3.09149 3.29107,-3.264265 0.26058,-0.26844 0.28646,-0.42835 0.17792,-1.099456 -0.21665,-1.339538 -0.12134,-2.601773 0.26398,-3.496347 0.38411,-0.891725 1.80668,-2.349978 2.66169,-2.728442 0.48128,-0.213037 0.48128,-0.213037 0.48206,-4.140594 4.2e-4,-2.160157 0.0468,-6.437123 0.10319,-9.504369 0.0563,-3.067246 0.056,-5.824141 -6e-4,-6.126434 -0.0794,-0.423313 -0.22044,-0.600757 -0.61365,-0.772118 -0.85365,-0.372016 -2.35609,-2.027939 -2.68628,-2.960707 -0.40781,-1.152028 -0.32104,-3.143499 0.17839,-4.094018 1.79664,-3.419458 6.05664,-4.030132 8.66257,-1.241789 0.46458,0.49709 0.46458,0.49709 2.16136,-0.225696 0.93323,-0.397533 2.3329,-0.981401 3.11037,-1.297485 0.77747,-0.316083 1.65227,-0.680081 1.94399,-0.808883 0.7525,-0.332255 6.23289,-2.405229 7.12653,-2.695637 0.74606,-0.242448 0.74606,-0.242448 0.74606,-1.076556 0,-1.274648 0.53475,-2.510049 1.48772,-3.436997 1.105,-1.074823 2.0725,-1.526972 3.44945,-1.612058 1.53309,-0.09473 2.69542,0.349501 3.79717,1.451248 1.39688,1.396885 1.96062,3.060824 1.62914,4.808667 -0.27633,1.457104 -1.60372,3.289015 -2.84032,3.919879 -0.58551,0.298708 -0.58551,0.298708 -0.56446,12.749769 0.015,8.892213 -0.0328,12.855101 -0.16715,13.86465 -0.24858,1.867153 -0.56635,5.570755 -0.48496,5.652154 0.0354,0.03538 0.94561,-0.537819 2.02275,-1.273752 1.07714,-0.735938 2.86608,-1.95146 3.97542,-2.70117 1.10933,-0.749705 3.53649,-2.396085 5.39368,-3.658617 l 3.3767,-2.295518 0.0289,-1.631115 c 0.0343,-1.933524 0.35502,-2.759137 1.50471,-3.873381 1.09668,-1.06285 2.17655,-1.50418 3.69967,-1.512003 1.16221,-0.006 1.34226,0.03903 2.39903,0.599563 1.93131,1.024421 2.76924,2.430146 2.77852,4.661301 0.005,1.223653 -0.0435,1.447219 -0.52067,2.396847 -0.77226,1.536826 -2.31101,2.647756 -3.97274,2.868195 -0.7535,0.09996 -0.7535,0.09996 -1.29512,1.533181 -0.85797,2.270366 -1.90473,5.224531 -2.45571,6.930512 -0.279,0.86386 -0.92236,2.712796 -1.42968,4.108761 -0.50732,1.39596 -0.92239,2.6382 -0.92239,2.76054 0,0.1272 0.65559,0.532 1.53138,0.94556 1.5314,0.72315 1.5314,0.72315 2.08112,0.19504 0.30236,-0.29046 0.93847,-0.72724 1.41359,-0.97063 0.74739,-0.38286 1.04386,-0.44252 2.19892,-0.44252 1.1102,0 1.48054,0.0686 2.19891,0.40741 1.19477,0.56346 1.98678,1.31157 2.56178,2.41976 0.44478,0.85722 0.48952,1.07726 0.49499,2.43451 0.005,1.28526 -0.0504,1.61241 -0.40098,2.35974 -0.63052,1.34416 -2.10818,2.47443 -3.86362,2.95531 -1.06683,0.29225 -1.06683,0.29225 -1.58425,1.76863 -1.13984,3.25242 -3.37791,10.0251 -4.58823,13.88455 -1.57077,5.00883 -1.68551,5.35397 -1.94357,5.8465 -0.22101,0.42182 -1.35535,1.04323 -8.4245,4.61509 -3.83951,1.94 -4.70841,2.39638 -7.9809,4.19188 -0.80447,0.44139 -1.61729,0.85075 -1.80625,0.90969 -0.18896,0.0589 -0.37891,0.15668 -0.4221,0.21719 -0.0432,0.0605 -0.8505,0.52807 -1.79403,1.03902 -1.36129,0.73718 -1.82259,1.07765 -2.23413,1.64892 -0.64016,0.88861 -3.00784,2.9441 -4.68896,4.07069 -0.69109,0.46313 -1.439,0.96395 -1.66203,1.11293 -0.39215,0.26195 -3.34833,1.71904 -5.22117,2.57349 -2.63411,1.20178 -7.70664,2.54259 -11.30672,2.98871 -2.44682,0.30319 -6.78174,0.41379 -8.90384,0.22716 z m 36.05434,-17.25391 c 0.21867,-0.2085 1.07674,-0.67381 4.2329,-2.29538 3.84509,-1.97554 5.16629,-2.66766 8.5986,-4.50445 3.24798,-1.73813 2.96575,-1.41444 3.80723,-4.36661 0.37403,-1.31223 2.13948,-6.82289 2.59143,-8.08887 0.24672,-0.69109 0.8028,-2.35205 1.23575,-3.69103 0.43294,-1.33898 1.04186,-3.17168 1.35316,-4.07267 0.56598,-1.63815 0.56598,-1.63815 -0.1218,-2.35597 -0.94465,-0.98591 -1.26354,-1.74071 -1.33552,-3.1611 -0.0601,-1.18675 -0.0601,-1.18675 -1.34069,-1.74928 -1.99658,-0.87708 -1.89916,-0.87656 -2.1874,-0.0117 -0.13726,0.41184 -0.67709,1.91501 -1.19963,3.34037 -0.52254,1.42537 -0.95146,2.6425 -0.95317,2.70472 -0.002,0.0622 -0.17236,0.48631 -0.37921,0.94239 -0.20686,0.45609 -0.73092,1.8541 -1.1646,3.1067 -0.43367,1.2526 -0.90396,2.54839 -1.04507,2.87954 -0.25657,0.60209 -0.25657,0.60209 -0.68092,0.32283 -0.23339,-0.15359 -0.60105,-0.36986 -0.81701,-0.4806 -0.21597,-0.11073 -0.58873,-0.36203 -0.82838,-0.55843 -0.43571,-0.35709 -0.43571,-0.35709 -0.0173,-1.45655 0.23011,-0.6047 0.50751,-1.31149 0.61643,-1.57065 0.10893,-0.25916 0.30759,-0.78925 0.44148,-1.17799 0.13388,-0.38873 0.42873,-1.20155 0.65521,-1.80625 0.22648,-0.6047 0.78905,-2.15965 1.25014,-3.45544 0.4611,-1.29578 1.02143,-2.86708 1.24518,-3.49175 0.22375,-0.62467 0.40681,-1.19606 0.40681,-1.26974 0,-0.13051 -0.84298,-0.54371 -4.55488,-2.2326 -2.36737,-1.07714 -2.81114,-1.27387 -4.39784,-1.94958 -0.73427,-0.31269 -1.61777,-0.7079 -1.96331,-0.87823 -0.34554,-0.17032 -0.67506,-0.30949 -0.73225,-0.30925 -0.0572,2.4e-4 -0.15469,0.30045 -0.21664,0.66714 -0.23284,1.37823 -2.09671,6.6753 -3.24718,9.22841 -2.79459,6.20179 -5.17737,9.89984 -10.96073,17.01095 -0.33222,0.40849 -0.34675,0.46552 -0.0944,0.37048 0.51665,-0.19459 2.91433,-0.56081 5.27755,-0.80609 1.2526,-0.13001 3.51434,-0.3761 5.02609,-0.54689 2.93415,-0.33147 6.45047,-0.63605 7.34315,-0.63605 0.45675,0 0.52541,0.044 0.42921,0.27487 -0.063,0.15117 -0.4958,1.26437 -0.9618,2.47378 -0.46602,1.2094 -1.12459,2.83503 -1.46349,3.61251 -0.33891,0.77747 -0.9821,2.29707 -1.42931,3.3769 -0.44722,1.07982 -0.93925,2.24603 -1.09341,2.59157 -1.04114,2.33374 -1.72489,3.9352 -1.72489,4.03997 0,0.16538 0.21747,0.15452 0.40052,-0.02 z M 156.1258,122.68388 c 1.4748,-1.90504 2.50543,-3.33596 3.12917,-4.34447 1.0252,-1.65763 1.70267,-2.73342 1.93281,-3.0692 0.49166,-0.71735 2.2772,-4.11152 2.96918,-5.64419 0.37052,-0.82067 0.80185,-1.77484 0.9585,-2.12039 0.75811,-1.67215 2.03639,-5.19793 2.0364,-5.61679 0,-0.0657 -0.58311,0.24677 -1.29579,0.69444 -0.71269,0.44768 -2.2853,1.39391 -3.4947,2.10275 -1.20941,0.70884 -3.2909,1.93361 -4.62555,2.72173 -1.33465,0.78811 -2.47698,1.43293 -2.53851,1.43293 -0.2019,0 -0.28067,1.12202 -0.36941,5.26169 -0.12683,5.91695 -0.24369,8.1728 -0.49222,9.50245 -0.1211,0.64789 -0.21755,1.24866 -0.21432,1.33505 0.007,0.19143 0.80444,-0.70591 2.00444,-2.256 z m 28.43435,-21.30379 c 0.25819,-0.77748 0.6604,-1.908355 0.89381,-2.513051 0.2334,-0.604704 0.79919,-2.194986 1.25729,-3.533972 0.45812,-1.33898 1.12637,-3.247324 1.48501,-4.240762 1.05378,-2.918963 1.10137,-3.103203 0.85453,-3.308066 -0.16576,-0.137568 -0.46886,-0.0059 -1.35739,0.589822 -0.6292,0.421817 -1.99213,1.337531 -3.02877,2.034925 -1.93067,1.298862 -7.30143,4.881714 -8.79394,5.866473 -0.77357,0.510399 -1.38462,0.95617 -2.18324,1.592698 -0.31204,0.248703 -0.24346,0.296354 1.97804,1.374319 1.2657,0.614179 2.33872,1.116684 2.38447,1.116684 0.11772,0 4.96201,2.16763 5.43669,2.4327 0.21596,0.12061 0.44023,0.17035 0.49837,0.11055 0.0581,-0.0598 0.31695,-0.74485 0.57513,-1.52232 z m -15.55041,-8.913461 c 0.50921,-4.390441 0.65058,-8.451689 0.65286,-18.755292 l 0.002,-10.391564 -0.74473,-0.36052 c -0.40961,-0.198285 -1.07999,-0.687072 -1.48974,-1.086192 l -0.745,-0.725674 -2.63323,1.081252 c -1.44828,0.594689 -2.88811,1.176467 -3.19963,1.292839 -0.31151,0.116372 -0.94762,0.385271 -1.41358,0.597552 -0.46596,0.212282 -1.0239,0.440612 -1.23986,0.507401 -0.40182,0.124265 -1.87068,0.717182 -4.24076,1.711805 -0.73428,0.308148 -1.41491,0.561561 -1.51251,0.563142 -0.10278,0.0017 -0.20663,0.382909 -0.2468,0.906 -0.0416,0.54225 -0.24465,1.269559 -0.50806,1.820165 -0.43872,0.917041 -0.43872,0.917041 0.0112,1.521222 0.24746,0.332299 1.18835,1.615936 2.09088,2.852526 1.45456,1.992937 2.20892,3.022834 4.40792,6.017913 0.31712,0.431929 0.9883,1.350761 1.49151,2.041848 1.21539,1.669179 6.25111,8.461247 6.63765,8.952721 0.0679,0.08638 0.60681,0.810849 1.19748,1.60992 0.59067,0.799071 1.12377,1.452856 1.18466,1.452856 0.0609,0 0.19474,-0.724463 0.29744,-1.60992 z m -30.54535,58.051201 c 0.0559,-0.66093 0.10158,-1.50087 0.10158,-1.86654 0,-0.66302 0.002,-0.66585 0.90313,-1.02417 0.49672,-0.19762 1.22118,-0.51687 1.60992,-0.70946 0.38873,-0.19258 1.16621,-0.54784 1.72771,-0.78946 0.56152,-0.24162 1.62171,-0.7964 2.35598,-1.23283 1.33506,-0.79352 1.33506,-0.79352 2.19892,-2.53397 1.28492,-2.58878 1.87965,-3.43502 2.90571,-4.13448 0.77655,-0.52939 1.73183,-0.88256 3.06277,-1.13234 1.07452,-0.20166 6.97669,-0.2828 7.16104,-0.0984 0.11744,0.11744 -0.1257,0.72739 -1.54854,3.88467 -2.16778,4.81031 -3.25194,5.91053 -6.19981,6.29163 -0.6736,0.0871 -2.04161,0.11081 -3.05779,0.053 -1.98411,-0.11282 -1.79993,-0.16991 -4.36523,1.3529 -1.15531,0.68581 -6.51025,3.14115 -6.85065,3.14115 -0.0585,0 -0.0606,-0.54076 -0.005,-1.20168 z m -24.80562,-8.81287 c -0.0932,-0.0639 -0.37379,-0.50489 -0.62357,-0.98001 -0.24978,-0.47512 -0.61529,-1.06365 -0.81223,-1.30784 -0.29723,-0.36852 -0.48166,-0.89108 -0.31451,-0.89108 0.024,0 1.0665,-0.34478 2.31672,-0.76618 3.41013,-1.14943 5.7761,-2.17448 8.97113,-3.88674 0.22847,-0.12243 0.50218,-0.32717 0.60823,-0.45496 0.10606,-0.12778 0.25077,-0.23233 0.32159,-0.23233 0.21823,0 2.19412,-1.27469 3.68087,-2.3746 2.35825,-1.74466 5.68543,-4.90359 7.75567,-7.36346 0.54528,-0.64789 1.16241,-1.36711 1.3714,-1.59825 0.37999,-0.42027 0.37999,-0.42027 0.0345,-1.25653 -0.26686,-0.64589 -0.3464,-1.15804 -0.3494,-2.24984 -0.005,-1.86848 0.36069,-2.71842 1.7155,-3.98578 1.59415,-1.49125 3.27561,-1.90483 5.24823,-1.29088 1.51308,0.47092 2.74769,1.54832 3.42703,2.99062 1.26292,2.68133 0.0496,6.12711 -2.63252,7.47641 -0.74461,0.3746 -1.05241,0.43481 -2.22981,0.43619 -0.94688,10e-4 -1.44786,-0.0664 -1.63293,-0.21996 -0.23666,-0.19641 -0.30452,-0.17002 -0.59737,0.23229 -3.50212,4.81108 -8.78151,9.43171 -14.93745,13.07355 -2.45744,1.45382 -7.64134,3.71652 -10.13071,4.42192 -0.30235,0.0857 -0.65575,0.19803 -0.78533,0.24969 -0.12958,0.0516 -0.31184,0.0417 -0.40502,-0.0223 z m 29.1638,-21.11092 c 1.26703,-0.43572 1.83784,-1.95975 1.2155,-3.24533 -1.07198,-2.21441 -4.37133,-1.38869 -4.37239,1.09428 -6e-4,1.59836 1.59748,2.68733 3.15689,2.15105 z m -34.099,13.94353 c -0.21596,-0.28875 -0.69305,-0.92003 -1.06019,-1.40286 -0.71246,-0.93696 -0.76505,-1.04835 -0.495,-1.04835 0.28872,0 2.81044,-1.24895 4.19304,-2.07673 2.73708,-1.63872 3.94292,-3.24128 4.26643,-5.67011 0.0915,-0.68713 0.16366,-4.15373 0.16366,-7.86568 v -6.63706 l -0.78791,-0.36904 c -1.04702,-0.49039 -2.1541,-1.60572 -2.64918,-2.6689 -0.34193,-0.73427 -0.40293,-1.08933 -0.40664,-2.36691 -0.005,-1.82331 0.31075,-2.57848 1.64455,-3.92942 1.1068,-1.121045 2.18577,-1.556939 3.85384,-1.556939 2.04695,0 3.70869,1.024494 4.82421,2.974219 0.43991,0.76889 0.50694,1.04508 0.56264,2.31855 0.0589,1.34673 0.0309,1.51473 -0.40882,2.4544 -0.59449,1.27042 -1.38409,2.14945 -2.49281,2.77518 l -0.8669,0.48924 0.0434,6.5097 c 0.0239,3.58034 0.0907,6.50971 0.14845,6.50971 0.0578,0 0.9098,-0.83817 1.89337,-1.8626 3.97078,-4.13576 5.0029,-5.52365 5.84516,-7.86006 0.48683,-1.35044 0.48683,-1.35044 0.54023,-7.5491 0.0294,-3.40925 0.0118,-6.364595 -0.0391,-6.567425 -0.0509,-0.202826 -1.10626,-1.408868 -2.34523,-2.680096 -3.43883,-3.528368 -4.50068,-5.48656 -4.96108,-9.148923 -0.15908,-1.265471 -0.14734,-1.703132 0.0817,-3.046751 0.27608,-1.619289 0.95858,-3.773461 1.49605,-4.722011 0.16869,-0.297728 0.4372,-0.771033 0.59667,-1.051787 0.55725,-0.981058 1.5982,-2.412601 2.70936,-3.725998 1.50313,-1.776704 4.09851,-4.559196 4.25261,-4.559196 0.13006,0 2.47262,2.400873 3.52312,3.610821 0.33671,0.387812 0.70065,0.799377 0.80877,0.914588 0.10812,0.115211 0.52978,0.681403 0.93704,1.258203 0.40726,0.5768 0.79005,1.084637 0.85066,1.128526 0.15048,0.108967 1.17959,1.911132 1.74639,3.058257 2.03466,4.117894 1.72861,9.154162 -0.78745,12.957726 -0.49,0.740741 -2.4868,2.944679 -4.01527,4.431788 -0.24409,0.237482 -0.6101,0.676842 -0.81335,0.976353 -0.36955,0.544569 -0.36955,0.544569 -0.42997,7.190175 -0.0571,6.27456 -0.0797,6.71362 -0.40633,7.86386 -0.68428,2.40993 -1.98737,4.65904 -3.79867,6.55647 -0.53602,0.56151 -1.47487,1.55102 -2.08633,2.19892 -6.39705,6.77823 -7.99254,8.30745 -10.35312,9.92312 -0.89139,0.6101 -3.24116,2.01384 -3.37103,2.01384 -0.0289,0 -0.41876,0.1767 -0.86644,0.39267 -0.44768,0.21596 -0.88907,0.39085 -0.98089,0.38864 -0.0918,-0.002 -0.34363,-0.24027 -0.5596,-0.52901 z m 9.72031,-28.04381 c 0.77594,-0.39586 1.0901,-0.89629 1.20773,-1.92381 0.0814,-0.71147 0.041,-0.91458 -0.27554,-1.38361 -0.74754,-1.1077 -2.25184,-1.43446 -3.21651,-0.69868 -1.4298,1.09057 -1.30623,3.17929 0.23631,3.99424 0.73653,0.38912 1.30209,0.3924 2.04801,0.0119 z m 12.48888,-12.868508 c 0.55205,-0.706441 1.27615,-1.679969 1.6091,-2.163393 0.60536,-0.878962 0.60536,-0.878962 0.60536,-2.548305 0,-1.885982 -0.15076,-2.305651 -1.4215,-3.957086 -0.87955,-1.143033 -2.26299,-2.659818 -2.426,-2.659818 -0.0687,0 -0.73659,0.706349 -1.48415,1.569663 -1.83844,2.123114 -2.35004,3.215825 -2.35279,5.025348 -0.002,0.989894 0.0713,1.473485 0.28044,1.863573 0.50148,0.935185 1.42464,2.181303 2.51465,3.394385 1.25857,1.40067 1.15461,1.42105 2.67489,-0.524367 z M 35.214553,63.313253 c -0.844139,-0.451361 -1.175695,-1.19263 -1.113649,-2.489817 0.02582,-0.540182 0.902607,-1.433498 1.520762,-1.549465 0.797587,-0.149628 1.589042,0.05255 2.142883,0.547415 0.423949,0.378795 0.500759,0.567261 0.556685,1.365901 0.05467,0.780819 0.0064,1.012538 -0.307133,1.473913 -0.655774,0.965014 -1.741356,1.217862 -2.799548,0.652053 z" id="path1"></path></g></svg>